<?xml version="1.0" standalone="no"?>
<!DOCTYPE svg PUBLIC "-//W3C//DTD SVG 20010904//EN"
 "http://www.w3.org/TR/2001/REC-SVG-20010904/DTD/svg10.dtd">
<svg version="1.0" xmlns="http://www.w3.org/2000/svg"
 width="852.000000pt" height="852.000000pt" viewBox="0 0 852.000000 852.000000"
 preserveAspectRatio="xMidYMid meet">
<metadata>
Created by potrace 1.11, written by Peter Selinger 2001-2013
</metadata>
<g transform="translate(0.000000,852.000000) scale(0.100000,-0.100000)"
fill="#000000" stroke="none">
<path d="M2565 8500 c-3 -6 -14 -10 -24 -10 -10 0 -34 -13 -52 -30 -19 -16
-37 -30 -40 -30 -3 0 -17 -9 -30 -21 -13 -12 -44 -35 -69 -52 -25 -17 -47 -34
-50 -37 -3 -4 -42 -34 -86 -67 -45 -33 -88 -65 -95 -72 -8 -6 -57 -43 -109
-82 -52 -39 -107 -81 -122 -93 -14 -11 -39 -31 -55 -42 -137 -103 -409 -323
-592 -479 -101 -86 -249 -234 -293 -292 -38 -50 -39 -54 -37 -125 1 -40 7 -82
13 -93 23 -41 57 -62 91 -55 6 1 21 4 34 6 30 6 73 35 130 88 28 26 45 36 48
29 3 -7 12 -13 20 -13 16 0 15 -27 -4 -220 -9 -81 -8 -544 1 -665 10 -133 22
-255 32 -325 3 -19 7 -53 10 -75 3 -22 8 -51 10 -65 3 -14 7 -38 9 -55 6 -54
14 -99 24 -140 6 -22 10 -41 10 -43 0 -1 3 -17 6 -35 3 -17 7 -39 9 -47 7 -44
33 -149 63 -265 19 -71 36 -134 37 -140 14 -55 21 -79 38 -135 18 -59 41 -130
56 -170 3 -8 7 -23 9 -33 1 -10 10 -31 18 -47 9 -17 15 -32 14 -35 -1 -9 123
-337 156 -410 7 -16 24 -55 38 -85 13 -30 34 -77 47 -105 37 -82 228 -466 261
-525 17 -30 47 -84 67 -120 79 -144 375 -614 425 -675 4 -5 72 -98 150 -205
174 -239 289 -393 297 -400 3 -3 23 -30 45 -60 22 -30 65 -89 97 -130 32 -41
61 -79 65 -85 5 -5 44 -57 88 -115 99 -130 87 -115 140 -182 25 -31 45 -59 45
-62 0 -3 8 -15 18 -25 9 -11 22 -26 27 -33 22 -30 110 -144 120 -155 14 -17
23 -28 75 -98 25 -33 50 -66 57 -75 20 -25 195 -251 240 -310 23 -30 59 -77
80 -105 22 -27 71 -92 110 -142 l71 -93 -23 -57 c-41 -99 -20 -176 64 -241 38
-28 49 -32 84 -27 51 8 122 44 207 103 36 25 67 48 70 52 3 3 30 25 60 50 160
130 405 366 520 499 30 35 64 74 75 86 11 13 36 42 55 66 19 23 47 56 61 73
14 17 65 83 112 146 48 63 92 121 99 129 20 25 211 294 273 387 33 49 63 90
68 92 4 2 7 10 7 18 0 8 5 14 10 14 6 0 10 4 10 9 0 6 19 38 43 73 94 139 281
442 410 668 177 309 404 766 519 1045 27 66 57 138 67 160 10 22 24 58 31 80
7 22 16 45 20 50 4 6 13 28 20 50 12 41 56 164 71 200 10 25 100 304 105 328
10 44 13 54 23 80 6 15 13 40 16 55 3 15 12 52 20 82 9 30 17 62 19 70 2 8 9
33 14 55 6 22 13 51 16 65 3 14 14 68 26 120 26 113 27 118 34 161 5 32 9 52
21 109 3 14 8 42 11 64 3 21 8 48 10 60 2 11 7 41 10 66 3 25 8 54 10 65 4 18
6 41 19 160 15 142 19 256 19 535 0 279 -3 382 -18 550 -6 68 -16 142 -22 173
-3 16 -7 38 -9 50 -10 76 -63 289 -84 342 -66 161 -243 453 -346 571 -5 7 -27
32 -47 55 -71 84 -80 94 -143 160 -259 271 -537 420 -797 428 -145 4 -237 -47
-348 -194 -25 -33 -47 -62 -51 -65 -3 -3 -47 -59 -99 -125 -52 -66 -105 -134
-119 -151 -73 -88 -97 -118 -105 -133 -5 -9 -12 -18 -16 -21 -3 -3 -42 -50
-85 -105 -44 -55 -87 -109 -97 -119 -10 -11 -18 -23 -18 -26 0 -4 -12 -20 -27
-37 -16 -16 -75 -90 -133 -163 -171 -219 -231 -294 -248 -315 -9 -11 -33 -40
-52 -65 -19 -25 -42 -54 -52 -65 -10 -11 -63 -78 -118 -150 -55 -71 -103 -134
-108 -140 -13 -16 -156 -236 -189 -290 -88 -145 -221 -411 -263 -525 -7 -19
-19 -48 -26 -65 -14 -35 -54 -143 -54 -150 0 -3 -2 -10 -4 -17 -48 -151 -77
-263 -96 -368 -6 -30 -12 -65 -14 -76 -7 -36 -14 -86 -23 -159 -8 -71 -8 -446
0 -520 12 -114 33 -226 66 -361 58 -234 203 -495 365 -656 215 -214 477 -314
791 -302 130 5 154 7 200 19 176 44 317 116 417 211 41 40 122 147 123 162 1
4 11 26 23 50 12 23 20 42 16 42 -4 0 -2 6 3 13 15 19 56 154 68 225 3 17 7
45 10 62 18 102 23 173 23 315 0 88 -4 189 -9 225 -5 36 -12 83 -15 105 -3 22
-7 48 -10 58 -4 11 -8 29 -9 40 -2 12 -9 42 -15 67 -7 25 -13 50 -14 55 -10
40 -29 100 -36 114 -5 9 -21 44 -35 79 -14 35 -49 107 -77 160 -28 53 -56 107
-62 119 -6 13 -14 23 -18 23 -5 0 -8 4 -8 10 0 14 -101 165 -160 240 -135 171
-259 304 -375 405 -39 33 -72 62 -75 66 -5 5 -121 91 -199 147 -25 18 -51 32
-58 32 -7 0 -13 4 -13 8 0 5 -11 14 -25 20 -36 17 -105 -12 -135 -55 -36 -53
-24 -90 51 -160 83 -77 364 -358 414 -415 22 -24 56 -65 77 -89 20 -24 44 -54
55 -66 39 -46 50 -61 110 -143 130 -180 231 -370 257 -485 2 -5 8 -30 15 -55
7 -25 15 -54 17 -65 2 -11 8 -42 14 -70 7 -27 13 -61 15 -75 1 -14 6 -45 10
-70 14 -87 16 -107 19 -270 4 -178 -5 -275 -34 -379 -50 -184 -231 -330 -462
-374 -74 -14 -235 -15 -291 -3 -221 50 -417 218 -540 462 -50 99 -121 308
-132 389 -2 11 -6 36 -10 55 -43 213 -47 583 -10 800 2 14 7 43 10 65 6 46 8
53 28 145 26 114 75 279 104 350 4 8 7 17 8 20 1 3 7 18 13 33 7 16 12 30 12
31 0 2 14 34 32 72 17 38 32 71 33 74 1 3 23 48 50 100 27 52 53 102 57 110 5
8 19 33 33 55 14 22 28 47 32 55 4 8 22 36 40 62 18 26 33 52 33 58 0 5 5 10
10 10 6 0 10 7 10 15 0 8 4 15 8 15 5 0 14 10 19 23 6 12 18 31 27 42 9 11 36
47 61 80 60 81 282 354 305 375 3 3 23 28 45 55 22 28 44 55 50 60 6 6 27 30
47 55 20 25 47 57 60 71 13 15 43 51 68 80 83 99 185 195 230 217 25 12 86 32
137 45 76 20 97 22 125 13 18 -7 36 -13 40 -14 4 -2 23 -9 42 -17 20 -8 37
-15 39 -15 7 0 192 -102 197 -109 3 -3 31 -24 63 -45 55 -37 203 -175 258
-241 14 -17 45 -60 70 -95 24 -36 46 -67 49 -70 11 -11 43 -71 94 -175 64
-132 143 -357 171 -490 47 -216 68 -349 69 -432 1 -24 4 -43 7 -43 3 0 6 -12
6 -27 1 -16 4 -86 8 -158 13 -223 8 -609 -10 -703 -1 -9 -6 -48 -10 -87 -8
-84 -13 -122 -20 -155 -3 -14 -7 -42 -10 -64 -3 -21 -7 -41 -9 -45 -2 -3 -7
-28 -10 -55 -4 -27 -9 -52 -11 -55 -1 -3 -6 -22 -9 -41 -3 -19 -13 -62 -22
-95 -8 -33 -17 -69 -19 -80 -5 -26 -45 -175 -53 -195 -3 -8 -6 -22 -8 -30 -11
-52 -128 -385 -191 -544 -122 -308 -248 -581 -396 -856 -89 -165 -199 -354
-209 -358 -4 -2 -8 -8 -8 -13 0 -11 -157 -256 -177 -277 -7 -7 -13 -17 -13
-22 0 -5 -6 -15 -13 -22 -7 -7 -33 -42 -57 -78 -47 -67 -67 -93 -87 -115 -7
-8 -13 -17 -13 -20 0 -6 -32 -47 -85 -112 -14 -17 -24 -30 -65 -83 -19 -25
-37 -47 -40 -50 -3 -3 -24 -27 -45 -55 -22 -27 -43 -52 -46 -55 -3 -3 -39 -43
-80 -90 -40 -47 -83 -95 -95 -108 l-21 -23 -59 73 c-32 40 -61 75 -65 78 -3 3
-51 62 -107 132 -56 71 -106 134 -112 140 -91 111 -523 688 -590 788 -8 12
-21 28 -27 36 -7 7 -13 17 -13 22 0 6 -3 12 -7 14 -5 2 -26 30 -48 63 -22 33
-42 62 -45 65 -3 3 -9 12 -15 21 -5 9 -55 84 -109 165 -91 136 -193 291 -223
340 -19 30 -77 124 -88 143 -5 9 -32 53 -58 96 -246 407 -454 826 -624 1260
-73 188 -210 618 -238 753 -2 9 -11 49 -20 87 -10 39 -19 79 -20 90 -2 11 -11
54 -20 95 -9 41 -18 91 -21 110 -2 19 -6 42 -9 50 -2 8 -7 39 -10 69 -4 30 -9
63 -11 75 -30 156 -47 425 -48 736 0 260 9 428 31 585 3 22 7 51 8 65 13 104
16 127 20 140 3 8 7 33 10 55 4 22 13 74 21 115 9 41 17 84 20 95 2 11 9 44
15 72 5 29 10 54 9 55 -1 2 3 15 9 31 6 15 13 38 15 50 3 12 19 69 36 127 17
58 32 110 34 115 9 38 61 182 69 193 5 6 6 12 2 12 -4 0 0 11 9 25 9 14 14 25
11 25 -3 0 -1 9 5 20 20 38 -49 106 -132 131 -49 15 -136 20 -143 9z"/>
<path d="M4093 8299 c-23 -4 -55 -15 -72 -23 -16 -9 -35 -16 -41 -16 -20 0
-114 -67 -167 -119 -103 -100 -189 -259 -209 -386 -3 -22 -7 -42 -9 -46 -6 -9
-18 -151 -18 -214 0 -51 11 -178 18 -210 2 -11 15 -90 18 -115 2 -8 5 -19 8
-25 4 -5 14 -33 23 -60 9 -28 36 -86 61 -130 25 -43 45 -82 45 -87 0 -4 3 -8
8 -8 4 0 16 -16 26 -35 11 -19 23 -35 28 -35 4 0 8 -5 8 -10 0 -17 95 -128
189 -221 84 -83 245 -219 259 -219 11 0 59 84 66 116 17 79 19 74 -59 153
-171 174 -261 313 -314 486 -56 184 -78 377 -59 505 15 94 16 99 42 155 56
123 147 191 233 176 39 -8 152 -56 163 -71 3 -3 28 -22 55 -40 108 -74 208
-22 208 110 0 234 -143 368 -403 375 -36 1 -84 -2 -107 -6z"/>
</g>
</svg>
